The detailed 33 categories in MFDataset
<svg xmlns:xlink="http://www.w3.org/1999/xlink" xmlns="http://www.w3.org/2000/svg" height="1265" width="1538" viewBox="0 0 1538 1265"><defs/><g transform="translate(-353.77,-188.00)"><g id="shape1" transform="translate(759.02,531.00)"><path fill="#ffffff" d="M128.0,47.0L128.0,.0L.0,.0L.0,47.0L128.0,47.0z" stroke="#c00000" fill-rule="nonzero" stroke-width="2"/><text style="fill:#000000;font-family:Times New Roman;font-size:16.00pt;font-weight:bold" xml:space="preserve"><tspan x="46.5" y="31.0">Slot</tspan></text></g><g id="shape2" transform="translate(354.77,873.00)"><path fill="#ffffff" d="M293.0,47.0L293.0,.0L.0,.0L.0,47.0L293.0,47.0z" stroke="#e16e6a" fill-rule="nonzero" stroke-width="2"/><text style="fill:#000000;font-family:Times New Roman;font-size:16.00pt;font-weight:bold" xml:space="preserve"><tspan x="84.5" y="31.0">T-through slot</tspan></text></g><g id="shape3" transform="translate(354.77,797.00)"><path fill="#ffffff" d="M293.0,47.0L293.0,.0L.0,.0L.0,47.0L293.0,47.0z" stroke="#e16e6a" fill-rule="nonzero" stroke-width="2"/><text style="fill:#000000;font-family:Times New Roman;font-size:16.00pt;font-weight:bold" xml:space="preserve"><tspan x="83.5" y="31.0">V-through slot</tspan></text></g><g id="shape4" transform="translate(354.77,721.00)"><path fill="#ffffff" d="M293.0,47.0L293.0,.0L.0,.0L.0,47.0L293.0,47.0z" stroke="#e16e6a" fill-rule="nonzero" stroke-width="2"/><text style="fill:#000000;font-family:Times New Roman;font-size:16.00pt;font-weight:bold" xml:space="preserve"><tspan x="73.0" y="31.0">Rounded groove</tspan></text></g><g id="shape5" transform="translate(354.77,645.00)"><path fill="#ffffff" d="M293.0,47.0L293.0,.0L.0,.0L.0,47.0L293.0,47.0z" stroke="#e16e6a" fill-rule="nonzero" stroke-width="2"/><text style="fill:#000000;font-family:Times New Roman;font-size:16.00pt;font-weight:bold" xml:space="preserve"><tspan x="62.0" y="31.0">Swallowtail groove</tspan></text></g><g id="shape6" transform="translate(354.77,569.00)"><path fill="#ffffff" d="M293.0,47.0L293.0,.0L.0,.0L.0,47.0L293.0,47.0z" stroke="#e16e6a" fill-rule="nonzero" stroke-width="2"/><text style="fill:#000000;font-family:Times New Roman;font-size:16.00pt;font-weight:bold" xml:space="preserve"><tspan x="102.0" y="31.0">A-keyway</tspan></text></g><g id="shape7" transform="translate(354.77,493.00)"><path fill="#ffffff" d="M293.0,47.0L293.0,.0L.0,.0L.0,47.0L293.0,47.0z" stroke="#e16e6a" fill-rule="nonzero" stroke-width="2"/><text style="fill:#000000;font-family:Times New Roman;font-size:16.00pt;font-weight:bold" xml:space="preserve"><tspan x="102.0" y="31.0">B-keyway</tspan></text></g><g id="shape8" transform="translate(354.77,417.00)"><path fill="#ffffff" d="M293.0,47.0L293.0,.0L.0,.0L.0,47.0L293.0,47.0z" stroke="#e16e6a" fill-rule="nonzero" stroke-width="2"/><text style="fill:#000000;font-family:Times New Roman;font-size:16.00pt;font-weight:bold" xml:space="preserve"><tspan x="102.0" y="31.0">C-keyway</tspan></text></g><g id="shape9" transform="translate(354.77,341.00)"><path fill="#ffffff" d="M293.0,47.0L293.0,.0L.0,.0L.0,47.0L293.0,47.0z" stroke="#e16e6a" fill-rule="nonzero" stroke-width="2"/><text style="fill:#000000;font-family:Times New Roman;font-size:16.00pt;font-weight:bold" xml:space="preserve"><tspan x="62.5" y="31.0">Half-moon keyway</tspan></text></g><g id="shape10" transform="translate(354.77,265.00)"><path fill="#ffffff" d="M293.0,47.0L293.0,.0L.0,.0L.0,47.0L293.0,47.0z" stroke="#e16e6a" fill-rule="nonzero" stroke-width="2"/><text style="fill:#000000;font-family:Times New Roman;font-size:16.00pt;font-weight:bold" xml:space="preserve"><tspan x="77.0" y="31.0">Straight groove</tspan></text></g><g id="shape11" transform="translate(354.77,189.00)"><path fill="#ffffff" d="M293.0,47.0L293.0,.0L.0,.0L.0,47.0L293.0,47.0z" stroke="#e16e6a" fill-rule="nonzero" stroke-width="2"/><text style="fill:#000000;font-family:Times New Roman;font-size:16.00pt;font-weight:bold" xml:space="preserve"><tspan x="57.5" y="31.0">Ring-shaped groove</tspan></text></g><g id="shape12" transform="translate(759.02,1133.00)"><path fill="#ffffff" d="M128.0,47.0L128.0,.0L.0,.0L.0,47.0L128.0,47.0z" stroke="#7030a0" fill-rule="nonzero" stroke-width="2"/><text style="fill:#000000;font-family:Times New Roman;font-size:16.00pt;font-weight:bold" xml:space="preserve"><tspan x="43.0" y="31.0">Hole</tspan></text></g><g id="shape13" transform="translate(354.77,1329.00)"><path fill="#ffffff" d="M293.0,47.0L293.0,.0L.0,.0L.0,47.0L293.0,47.0z" stroke="#7030a0" fill-rule="nonzero" stroke-width="2"/><text style="fill:#000000;font-family:Times New Roman;font-size:16.00pt;font-weight:bold" xml:space="preserve"><tspan x="58.5" y="31.0">Round through hole</tspan></text></g><g id="shape14" transform="translate(354.77,1253.00)"><path fill="#ffffff" d="M293.0,47.0L293.0,.0L.0,.0L.0,47.0L293.0,47.0z" stroke="#7030a0" fill-rule="nonzero" stroke-width="2"/><text style="fill:#000000;font-family:Times New Roman;font-size:16.00pt;font-weight:bold" xml:space="preserve"><tspan x="72.0" y="31.0">Round blind hole</tspan></text></g><g id="shape15" transform="translate(354.77,1177.00)"><path fill="#ffffff" d="M293.0,47.0L293.0,.0L.0,.0L.0,47.0L293.0,47.0z" stroke="#7030a0" fill-rule="nonzero" stroke-width="2"/><text style="fill:#000000;font-family:Times New Roman;font-size:16.00pt;font-weight:bold" xml:space="preserve"><tspan x="20.5" y="31.0">Cylindrical countersunk hole</tspan></text></g><g id="shape16" transform="translate(354.77,1101.00)"><path fill="#ffffff" d="M293.0,47.0L293.0,.0L.0,.0L.0,47.0L293.0,47.0z" stroke="#7030a0" fill-rule="nonzero" stroke-width="2"/><text style="fill:#000000;font-family:Times New Roman;font-size:16.00pt;font-weight:bold" xml:space="preserve"><tspan x="32.5" y="31.0">Tapered countersunk hole</tspan></text></g><g id="shape17" transform="translate(354.77,1025.00)"><path fill="#ffffff" d="M293.0,47.0L293.0,.0L.0,.0L.0,47.0L293.0,47.0z" stroke="#7030a0" fill-rule="nonzero" stroke-width="2"/><text style="fill:#000000;font-family:Times New Roman;font-size:16.00pt;font-weight:bold" xml:space="preserve"><tspan x="59.5" y="31.0">Round stepped hole</tspan></text></g><g id="shape18" transform="translate(354.77,949.00)"><path fill="#ffffff" d="M293.0,47.0L293.0,.0L.0,.0L.0,47.0L293.0,47.0z" stroke="#7030a0" fill-rule="nonzero" stroke-width="2"/><text style="fill:#000000;font-family:Times New Roman;font-size:16.00pt;font-weight:bold" xml:space="preserve"><tspan x="86.5" y="31.0">A-center hole</tspan></text></g><g id="shape19" transform="translate(1364.77,265.00)"><path fill="#ffffff" d="M128.0,47.0L128.0,.0L.0,.0L.0,47.0L128.0,47.0z" stroke="#fe9d17" fill-rule="nonzero" stroke-width="2"/><text style="fill:#000000;font-family:Times New Roman;font-size:16.00pt;font-weight:bold" xml:space="preserve"><tspan x="44.0" y="31.0">Step</tspan></text></g><g id="shape20" transform="translate(1597.27,341.00)"><path fill="#ffffff" d="M293.0,47.0L293.0,.0L.0,.0L.0,47.0L293.0,47.0z" stroke="#fe9d17" fill-rule="nonzero" stroke-width="2"/><text style="fill:#000000;font-family:Times New Roman;font-size:16.00pt;font-weight:bold" xml:space="preserve"><tspan x="33.5" y="31.0">Rectangular through step</tspan></text></g><g id="shape21" transform="translate(1597.27,265.00)"><path fill="#ffffff" d="M293.0,47.0L293.0,.0L.0,.0L.0,47.0L293.0,47.0z" stroke="#fe9d17" fill-rule="nonzero" stroke-width="2"/><text style="fill:#000000;font-family:Times New Roman;font-size:16.00pt;font-weight:bold" xml:space="preserve"><tspan x="90.5" y="31.0">General step</tspan></text></g><g id="shape22" transform="translate(1597.27,189.00)"><path fill="#ffffff" d="M293.0,47.0L293.0,.0L.0,.0L.0,47.0L293.0,47.0z" stroke="#fe9d17" fill-rule="nonzero" stroke-width="2"/><text style="fill:#000000;font-family:Times New Roman;font-size:16.00pt;font-weight:bold" xml:space="preserve"><tspan x="102.0" y="31.0">Shaft step</tspan></text></g><g id="shape23" transform="translate(1364.77,457.50)"><path fill="#ffffff" d="M128.0,47.0L128.0,.0L.0,.0L.0,47.0L128.0,47.0z" stroke="#00b0f0" fill-rule="nonzero" stroke-width="2"/><text style="fill:#000000;font-family:Times New Roman;font-size:16.00pt;font-weight:bold" xml:space="preserve"><tspan x="32.0" y="31.0">Thread</tspan></text></g><g id="shape24" transform="translate(1597.27,493.00)"><path fill="#ffffff" d="M293.0,47.0L293.0,.0L.0,.0L.0,47.0L293.0,47.0z" stroke="#00b0f0" fill-rule="nonzero" stroke-width="2"/><text style="fill:#000000;font-family:Times New Roman;font-size:16.00pt;font-weight:bold" xml:space="preserve"><tspan x="49.0" y="31.0">External screw thread</tspan></text></g><g id="shape25" transform="translate(1597.27,417.00)"><path fill="#ffffff" d="M293.0,47.0L293.0,.0L.0,.0L.0,47.0L293.0,47.0z" stroke="#00b0f0" fill-rule="nonzero" stroke-width="2"/><text style="fill:#000000;font-family:Times New Roman;font-size:16.00pt;font-weight:bold" xml:space="preserve"><tspan x="52.0" y="31.0">Internal screw thread</tspan></text></g><g id="shape26" transform="translate(1364.77,645.00)"><path fill="#ffffff" d="M128.0,47.0L128.0,.0L.0,.0L.0,47.0L128.0,47.0z" stroke="#00b050" fill-rule="nonzero" stroke-width="2"/><text style="fill:#000000;font-family:Times New Roman;font-size:16.00pt;font-weight:bold" xml:space="preserve"><tspan x="20.0" y="31.0">Transition</tspan></text></g><g id="shape27" transform="translate(1597.27,721.00)"><path fill="#ffffff" d="M293.0,47.0L293.0,.0L.0,.0L.0,47.0L293.0,47.0z" stroke="#00b050" fill-rule="nonzero" stroke-width="2"/><text style="fill:#000000;font-family:Times New Roman;font-size:16.00pt;font-weight:bold" xml:space="preserve"><tspan x="117.0" y="31.0">Round</tspan></text></g><g id="shape28" transform="translate(1597.27,645.00)"><path fill="#ffffff" d="M293.0,47.0L293.0,.0L.0,.0L.0,47.0L293.0,47.0z" stroke="#00b050" fill-rule="nonzero" stroke-width="2"/><text style="fill:#000000;font-family:Times New Roman;font-size:16.00pt;font-weight:bold" xml:space="preserve"><tspan x="107.0" y="31.0">Chamfer</tspan></text></g><g id="shape29" transform="translate(1597.27,569.00)"><path fill="#ffffff" d="M293.0,47.0L293.0,.0L.0,.0L.0,47.0L293.0,47.0z" stroke="#00b050" fill-rule="nonzero" stroke-width="2"/><text style="fill:#000000;font-family:Times New Roman;font-size:16.00pt;font-weight:bold" xml:space="preserve"><tspan x="103.5" y="31.0">Rounding</tspan></text></g><g id="shape30" transform="translate(1364.77,832.50)"><path fill="#ffffff" d="M128.0,47.0L128.0,.0L.0,.0L.0,47.0L128.0,47.0z" stroke="#ff0000" fill-rule="nonzero" stroke-width="2"/><text style="fill:#000000;font-family:Times New Roman;font-size:16.00pt;font-weight:bold" xml:space="preserve"><tspan x="24.0" y="31.0">Protrude</tspan></text></g><g id="shape31" transform="translate(1597.27,873.00)"><path fill="#ffffff" d="M293.0,47.0L293.0,.0L.0,.0L.0,47.0L293.0,47.0z" stroke="#ff0000" fill-rule="nonzero" stroke-width="2"/><text style="fill:#000000;font-family:Times New Roman;font-size:16.00pt;font-weight:bold" xml:space="preserve"><tspan x="125.5" y="31.0">Boss</tspan></text></g><g id="shape32" transform="translate(1597.27,797.00)"><path fill="#ffffff" d="M293.0,47.0L293.0,.0L.0,.0L.0,47.0L293.0,47.0z" stroke="#ff0000" fill-rule="nonzero" stroke-width="2"/><text style="fill:#000000;font-family:Times New Roman;font-size:16.00pt;font-weight:bold" xml:space="preserve"><tspan x="91.5" y="31.0">Convex hull </tspan></text></g><g id="shape33" transform="translate(1364.77,987.50)"><path fill="#ffffff" d="M128.0,47.0L128.0,.0L.0,.0L.0,47.0L128.0,47.0z" stroke="#4155c6" fill-rule="nonzero" stroke-width="2"/><text style="fill:#000000;font-family:Times New Roman;font-size:16.00pt;font-weight:bold" xml:space="preserve"><tspan x="36.5" y="31.0">Based</tspan></text></g><g id="shape34" transform="translate(1597.27,1025.00)"><path fill="#ffffff" d="M293.0,47.0L293.0,.0L.0,.0L.0,47.0L293.0,47.0z" stroke="#4155c6" fill-rule="nonzero" stroke-width="2"/><text style="fill:#000000;font-family:Times New Roman;font-size:16.00pt;font-weight:bold" xml:space="preserve"><tspan x="25.5" y="31.0">External cylindrical surface</tspan></text></g><g id="shape35" transform="translate(1597.27,949.00)"><path fill="#ffffff" d="M293.0,47.0L293.0,.0L.0,.0L.0,47.0L293.0,47.0z" stroke="#4155c6" fill-rule="nonzero" stroke-width="2"/><text style="fill:#000000;font-family:Times New Roman;font-size:16.00pt;font-weight:bold" xml:space="preserve"><tspan x="121.0" y="31.0">Plane</tspan></text></g><g id="shape36" transform="translate(1364.77,1253.00)"><path fill="#ffffff" d="M128.0,47.0L128.0,.0L.0,.0L.0,47.0L128.0,47.0z" stroke="#002060" fill-rule="nonzero" stroke-width="2"/><text style="fill:#000000;font-family:Times New Roman;font-size:16.00pt;font-weight:bold" xml:space="preserve"><tspan x="34.0" y="31.0">Others</tspan></text></g><g id="shape37" transform="translate(1597.27,1405.00)"><path fill="#ffffff" d="M293.0,47.0L293.0,.0L.0,.0L.0,47.0L293.0,47.0z" stroke="#002060" fill-rule="nonzero" stroke-width="2"/><text style="fill:#000000;font-family:Times New Roman;font-size:16.00pt;font-weight:bold" xml:space="preserve"><tspan x="75.0" y="31.0">Spherical crown</tspan></text></g><g id="shape38" transform="translate(1597.27,1329.00)"><path fill="#ffffff" d="M293.0,47.0L293.0,.0L.0,.0L.0,47.0L293.0,47.0z" stroke="#002060" fill-rule="nonzero" stroke-width="2"/><text style="fill:#000000;font-family:Times New Roman;font-size:16.00pt;font-weight:bold" xml:space="preserve"><tspan x="25.5" y="31.0">General removal of volume</tspan></text></g><g id="shape39" transform="translate(1597.27,1253.00)"><path fill="#ffffff" d="M293.0,47.0L293.0,.0L.0,.0L.0,47.0L293.0,47.0z" stroke="#002060" fill-rule="nonzero" stroke-width="2"/><text style="fill:#000000;font-family:Times New Roman;font-size:16.00pt;font-weight:bold" xml:space="preserve"><tspan x="21.0" y="31.0">Triangular rib reinforcement</tspan></text></g><g id="shape40" transform="translate(1597.27,1177.00)"><path fill="#ffffff" d="M293.0,47.0L293.0,.0L.0,.0L.0,47.0L293.0,47.0z" stroke="#002060" fill-rule="nonzero" stroke-width="2"/><text style="fill:#000000;font-family:Times New Roman;font-size:16.00pt;font-weight:bold" xml:space="preserve"><tspan x="84.0" y="31.0">Closed pocket</tspan></text></g><g id="shape41" transform="translate(1597.27,1101.00)"><path fill="#ffffff" d="M293.0,47.0L293.0,.0L.0,.0L.0,47.0L293.0,47.0z" stroke="#002060" fill-rule="nonzero" stroke-width="2"/><text style="fill:#000000;font-family:Times New Roman;font-size:16.00pt;font-weight:bold" xml:space="preserve"><tspan x="79.5" y="31.0">Opened pocket</tspan></text></g><g id="shape42" transform="translate(1492.77,668.50)"><path fill="none" stroke="#00b050" d="M.0,.0L77.0,.0L77.0,-76.0L96.5,-76.0" stroke-width="2"/><path fill="#00b050" stroke="#00b050" d="M96.5,-80.2L105.0,-76.0L96.5,-71.8L96.5,-80.2" stroke-linecap="round" stroke-width="1"/></g><g id="shape43" transform="translate(1492.77,668.50)"><path fill="none" stroke="#00b050" d="M.0,.0L96.5,.0" stroke-width="2"/><path fill="#00b050" stroke="#00b050" d="M96.5,-4.2L105.0,.0L96.5,4.2L96.5,-4.2" stroke-linecap="round" stroke-width="1"/></g><g id="shape44" transform="translate(1492.77,668.50)"><path fill="none" stroke="#00b050" d="M.0,.0L77.0,.0L77.0,76.0L96.5,76.0" stroke-width="2"/><path fill="#00b050" stroke="#00b050" d="M96.5,71.8L105.0,76.0L96.5,80.2L96.5,71.8" stroke-linecap="round" stroke-width="1"/></g><g id="shape45" transform="translate(1492.77,856.00)"><path fill="none" stroke="#ff0000" d="M.0,.0L77.0,.0L77.0,-36.0L96.5,-36.0" stroke-width="2"/><path fill="#ff0000" stroke="#ff0000" d="M96.5,-40.2L105.0,-36.0L96.5,-31.8L96.5,-40.2" stroke-linecap="round" stroke-width="1"/></g><g id="shape46" transform="translate(1492.77,856.00)"><path fill="none" stroke="#ff0000" d="M.0,.0L77.0,.0L77.0,40.0L96.5,40.0" stroke-width="2"/><path fill="#ff0000" stroke="#ff0000" d="M96.5,35.8L105.0,40.0L96.5,44.2L96.5,35.8" stroke-linecap="round" stroke-width="1"/></g><g id="shape47" transform="translate(1492.77,1011.00)"><path fill="none" stroke="#4155c6" d="M.0,.0L77.0,.0L77.0,-39.0L96.5,-39.0" stroke-width="2"/><path fill="#4155c6" stroke="#4155c6" d="M96.5,-43.2L105.0,-39.0L96.5,-34.8L96.5,-43.2" stroke-linecap="round" stroke-width="1"/></g><g id="shape48" transform="translate(1492.77,1011.00)"><path fill="none" stroke="#4155c6" d="M.0,.0L77.0,.0L77.0,37.0L96.5,37.0" stroke-width="2"/><path fill="#4155c6" stroke="#4155c6" d="M96.5,32.8L105.0,37.0L96.5,41.2L96.5,32.8" stroke-linecap="round" stroke-width="1"/></g><g id="shape49" transform="translate(1492.77,1276.50)"><path fill="none" stroke="#002060" d="M.0,.0L77.0,.0L77.0,-152.0L96.5,-152.0" stroke-width="2"/><path fill="#002060" stroke="#002060" d="M96.5,-156.2L105.0,-152.0L96.5,-147.8L96.5,-156.2" stroke-linecap="round" stroke-width="1"/></g><g id="shape50" transform="translate(1492.77,1276.50)"><path fill="none" stroke="#002060" d="M.0,.0L77.0,.0L77.0,-76.0L96.5,-76.0" stroke-width="2"/><path fill="#002060" stroke="#002060" d="M96.5,-80.2L105.0,-76.0L96.5,-71.8L96.5,-80.2" stroke-linecap="round" stroke-width="1"/></g><g id="shape51" transform="translate(1492.77,1276.50)"><path fill="none" stroke="#002060" d="M.0,.0L77.0,.0L77.0,76.0L96.5,76.0" stroke-width="2"/><path fill="#002060" stroke="#002060" d="M96.5,71.8L105.0,76.0L96.5,80.2L96.5,71.8" stroke-linecap="round" stroke-width="1"/></g><g id="shape52" transform="translate(1492.77,1276.50)"><path fill="none" stroke="#002060" d="M.0,.0L77.0,.0L77.0,152.0L96.5,152.0" stroke-width="2"/><path fill="#002060" stroke="#002060" d="M96.5,147.8L105.0,152.0L96.5,156.2L96.5,147.8" stroke-linecap="round" stroke-width="1"/></g><g id="shape53" transform="translate(1492.77,481.00)"><path fill="none" stroke="#00b0f0" d="M.0,.0L77.0,.0L77.0,-41.0L96.5,-41.0" stroke-width="2"/><path fill="#00b0f0" stroke="#00b0f0" d="M96.5,-45.2L105.0,-41.0L96.5,-36.8L96.5,-45.2" stroke-linecap="round" stroke-width="1"/></g><g id="shape54" transform="translate(1492.77,481.00)"><path fill="none" stroke="#00b0f0" d="M.0,.0L77.0,.0L77.0,35.0L96.5,35.0" stroke-width="2"/><path fill="#00b0f0" stroke="#00b0f0" d="M96.5,30.8L105.0,35.0L96.5,39.2L96.5,30.8" stroke-linecap="round" stroke-width="1"/></g><g id="shape55" transform="translate(1492.77,288.50)"><path fill="none" stroke="#fe9d17" d="M.0,.0L77.0,.0L77.0,-76.0L96.5,-76.0" stroke-width="2"/><path fill="#fe9d17" stroke="#fe9d17" d="M96.5,-80.2L105.0,-76.0L96.5,-71.8L96.5,-80.2" stroke-linecap="round" stroke-width="1"/></g><g id="shape56" transform="translate(1492.77,288.50)"><path fill="none" stroke="#fe9d17" d="M.0,.0L96.5,.0" stroke-width="2"/><path fill="#fe9d17" stroke="#fe9d17" d="M96.5,-4.2L105.0,.0L96.5,4.2L96.5,-4.2" stroke-linecap="round" stroke-width="1"/></g><g id="shape57" transform="translate(1492.77,288.50)"><path fill="none" stroke="#fe9d17" d="M.0,.0L77.0,.0L77.0,76.0L96.5,76.0" stroke-width="2"/><path fill="#fe9d17" stroke="#fe9d17" d="M96.5,71.8L105.0,76.0L96.5,80.2L96.5,71.8" stroke-linecap="round" stroke-width="1"/></g><g id="shape58" transform="translate(1492.77,1276.50)"><path fill="none" stroke="#002060" d="M.0,.0L96.5,.0" stroke-width="2"/><path fill="#002060" stroke="#002060" d="M96.5,-4.2L105.0,.0L96.5,4.2L96.5,-4.2" stroke-linecap="round" stroke-width="1"/></g><g id="shape59" transform="translate(759.02,554.50)"><path fill="none" stroke="#c00000" d="M.0,.0L-84.0,.0L-84.0,-342.0L-103.5,-342.0" stroke-width="2"/><path fill="#c00000" stroke="#c00000" d="M-103.5,-337.8L-112.0,-342.0L-103.5,-346.2L-103.5,-337.8" stroke-linecap="round" stroke-width="1"/></g><g id="shape60" transform="translate(759.02,554.50)"><path fill="none" stroke="#c00000" d="M.0,.0L-84.0,.0L-84.0,-266.0L-103.5,-266.0" stroke-width="2"/><path fill="#c00000" stroke="#c00000" d="M-103.5,-261.8L-112.0,-266.0L-103.5,-270.2L-103.5,-261.8" stroke-linecap="round" stroke-width="1"/></g><g id="shape61" transform="translate(759.02,554.50)"><path fill="none" stroke="#c00000" d="M.0,.0L-84.0,.0L-84.0,-190.0L-103.5,-190.0" stroke-width="2"/><path fill="#c00000" stroke="#c00000" d="M-103.5,-185.8L-112.0,-190.0L-103.5,-194.2L-103.5,-185.8" stroke-linecap="round" stroke-width="1"/></g><g id="shape62" transform="translate(759.02,554.50)"><path fill="none" stroke="#c00000" d="M.0,.0L-84.0,.0L-84.0,-114.0L-103.5,-114.0" stroke-width="2"/><path fill="#c00000" stroke="#c00000" d="M-103.5,-109.8L-112.0,-114.0L-103.5,-118.2L-103.5,-109.8" stroke-linecap="round" stroke-width="1"/></g><g id="shape63" transform="translate(759.02,554.50)"><path fill="none" stroke="#c00000" d="M.0,.0L-84.0,.0L-84.0,-38.0L-103.5,-38.0" stroke-width="2"/><path fill="#c00000" stroke="#c00000" d="M-103.5,-33.8L-112.0,-38.0L-103.5,-42.2L-103.5,-33.8" stroke-linecap="round" stroke-width="1"/></g><g id="shape64" transform="translate(759.02,554.50)"><path fill="none" stroke="#c00000" d="M.0,.0L-84.0,.0L-84.0,38.0L-103.5,38.0" stroke-width="2"/><path fill="#c00000" stroke="#c00000" d="M-103.5,42.2L-112.0,38.0L-103.5,33.8L-103.5,42.2" stroke-linecap="round" stroke-width="1"/></g><g id="shape65" transform="translate(759.02,554.50)"><path fill="none" stroke="#c00000" d="M.0,.0L-84.0,.0L-84.0,114.0L-103.5,114.0" stroke-width="2"/><path fill="#c00000" stroke="#c00000" d="M-103.5,118.2L-112.0,114.0L-103.5,109.8L-103.5,118.2" stroke-linecap="round" stroke-width="1"/></g><g id="shape66" transform="translate(759.02,554.50)"><path fill="none" stroke="#c00000" d="M.0,.0L-84.0,.0L-84.0,190.0L-103.5,190.0" stroke-width="2"/><path fill="#c00000" stroke="#c00000" d="M-103.5,194.2L-112.0,190.0L-103.5,185.8L-103.5,194.2" stroke-linecap="round" stroke-width="1"/></g><g id="shape67" transform="translate(759.02,554.50)"><path fill="none" stroke="#c00000" d="M.0,.0L-84.0,.0L-84.0,266.0L-103.5,266.0" stroke-width="2"/><path fill="#c00000" stroke="#c00000" d="M-103.5,270.2L-112.0,266.0L-103.5,261.8L-103.5,270.2" stroke-linecap="round" stroke-width="1"/></g><g id="shape68" transform="translate(759.02,554.50)"><path fill="none" stroke="#c00000" d="M.0,.0L-84.0,.0L-84.0,342.0L-103.5,342.0" stroke-width="2"/><path fill="#c00000" stroke="#c00000" d="M-103.5,346.2L-112.0,342.0L-103.5,337.8L-103.5,346.2" stroke-linecap="round" stroke-width="1"/></g><g id="shape69" transform="translate(759.02,1156.50)"><path fill="none" stroke="#7030a0" d="M.0,.0L-84.0,.0L-84.0,-184.0L-103.5,-184.0" stroke-width="2"/><path fill="#7030a0" stroke="#7030a0" d="M-103.5,-179.8L-112.0,-184.0L-103.5,-188.2L-103.5,-179.8" stroke-linecap="round" stroke-width="1"/></g><g id="shape70" transform="translate(759.02,1156.50)"><path fill="none" stroke="#7030a0" d="M.0,.0L-84.0,.0L-84.0,-108.0L-103.5,-108.0" stroke-width="2"/><path fill="#7030a0" stroke="#7030a0" d="M-103.5,-103.8L-112.0,-108.0L-103.5,-112.2L-103.5,-103.8" stroke-linecap="round" stroke-width="1"/></g><g id="shape71" transform="translate(759.02,1156.50)"><path fill="none" stroke="#7030a0" d="M.0,.0L-84.0,.0L-84.0,-32.0L-103.5,-32.0" stroke-width="2"/><path fill="#7030a0" stroke="#7030a0" d="M-103.5,-27.8L-112.0,-32.0L-103.5,-36.2L-103.5,-27.8" stroke-linecap="round" stroke-width="1"/></g><g id="shape72" transform="translate(759.02,1156.50)"><path fill="none" stroke="#7030a0" d="M.0,.0L-84.0,.0L-84.0,44.0L-103.5,44.0" stroke-width="2"/><path fill="#7030a0" stroke="#7030a0" d="M-103.5,48.2L-112.0,44.0L-103.5,39.8L-103.5,48.2" stroke-linecap="round" stroke-width="1"/></g><g id="shape73" transform="translate(759.02,1156.50)"><path fill="none" stroke="#7030a0" d="M.0,.0L-84.0,.0L-84.0,120.0L-103.5,120.0" stroke-width="2"/><path fill="#7030a0" stroke="#7030a0" d="M-103.5,124.2L-112.0,120.0L-103.5,115.8L-103.5,124.2" stroke-linecap="round" stroke-width="1"/></g><g id="shape74" transform="translate(759.02,1156.50)"><path fill="none" stroke="#7030a0" d="M.0,.0L-84.0,.0L-84.0,196.0L-103.5,196.0" stroke-width="2"/><path fill="#7030a0" stroke="#7030a0" d="M-103.5,200.2L-112.0,196.0L-103.5,191.8L-103.5,200.2" stroke-linecap="round" stroke-width="1"/></g><g id="shape75" transform="translate(963.02,740.25)"><path fill="#ffffff" d="M319.0,87.5L319.0,.0L.0,.0L.0,87.5L319.0,87.5z" stroke="#101843" fill-rule="nonzero" stroke-width="2"/><text style="fill:#000000;font-family:Times New Roman;font-size:16.00pt;font-weight:bold" xml:space="preserve"><tspan x="24.5" y="51.5">Machining feature MFDataset</tspan></text></g><g id="shape76" transform="translate(963.00,784.00)"><path fill="none" stroke="#000000" d="M.0,.0L-48.0,.0L-48.0,-230.0L-67.5,-230.0" stroke-width="2"/><path fill="#000000" stroke="#000000" d="M-67.5,-225.8L-76.0,-230.0L-67.5,-234.2L-67.5,-225.8" stroke-linecap="round" stroke-width="1"/></g><g id="shape77" transform="translate(963.00,784.00)"><path fill="none" stroke="#000000" d="M.0,.0L-48.0,.0L-48.0,372.0L-67.5,372.0" stroke-width="2"/><path fill="#000000" stroke="#000000" d="M-67.5,376.2L-76.0,372.0L-67.5,367.8L-67.5,376.2" stroke-linecap="round" stroke-width="1"/></g><g id="shape78" transform="translate(1282.02,784.00)"><path fill="none" stroke="#191919" d="M.0,.0L54.0,.0L54.0,-496.0L73.5,-496.0" stroke-width="2"/><path fill="#191919" stroke="#191919" d="M73.5,-500.2L82.0,-496.0L73.5,-491.8L73.5,-500.2" stroke-linecap="round" stroke-width="1"/></g><g id="shape79" transform="translate(1282.00,784.00)"><path fill="none" stroke="#191919" d="M.0,.0L54.0,.0L54.0,-303.0L73.5,-303.0" stroke-width="2"/><path fill="#191919" stroke="#191919" d="M73.5,-307.2L82.0,-303.0L73.5,-298.8L73.5,-307.2" stroke-linecap="round" stroke-width="1"/></g><g id="shape80" transform="translate(1282.00,784.00)"><path fill="none" stroke="#191919" d="M.0,.0L54.0,.0L54.0,-116.0L73.5,-116.0" stroke-width="2"/><path fill="#191919" stroke="#191919" d="M73.5,-120.2L82.0,-116.0L73.5,-111.8L73.5,-120.2" stroke-linecap="round" stroke-width="1"/></g><g id="shape81" transform="translate(1282.00,784.00)"><path fill="none" stroke="#191919" d="M.0,.0L54.0,.0L54.0,71.0L73.5,71.0" stroke-width="2"/><path fill="#191919" stroke="#191919" d="M73.5,66.8L82.0,71.0L73.5,75.2L73.5,66.8" stroke-linecap="round" stroke-width="1"/></g><g id="shape82" transform="translate(1282.00,784.00)"><path fill="none" stroke="#191919" d="M.0,.0L54.0,.0L54.0,226.0L73.5,226.0" stroke-width="2"/><path fill="#191919" stroke="#191919" d="M73.5,221.8L82.0,226.0L73.5,230.2L73.5,221.8" stroke-linecap="round" stroke-width="1"/></g><g id="shape83" transform="translate(1282.00,784.00)"><path fill="none" stroke="#191919" d="M.0,.0L54.0,.0L54.0,492.0L73.5,492.0" stroke-width="2"/><path fill="#191919" stroke="#191919" d="M73.5,487.8L82.0,492.0L73.5,496.2L73.5,487.8" stroke-linecap="round" stroke-width="1"/></g></g></svg>
